<svg width="110" height="44" viewBox="0 0 110 44" fill="none" xmlns="http://www.w3.org/2000/svg">
<path d="M24.2175 8.10239C23.8932 7.60575 23.4194 7.59149 22.8795 7.57523C22.8183 7.57339 22.7563 7.57153 22.6936 7.56893C22.6458 7.56673 22.5931 7.56758 22.538 7.56846C22.319 7.57198 22.0629 7.57609 21.9339 7.39212C21.7843 7.17883 21.7985 6.76663 21.8102 6.42635C21.8139 6.31882 21.8173 6.21841 21.8153 6.1338C21.7943 5.34332 21.7504 4.50363 21.4453 4.22292C21.2152 4.01231 20.5268 4.04149 19.892 4.0684C19.6862 4.07712 19.486 4.0856 19.3089 4.0856H5.79596C5.52389 4.0856 5.23869 4.06345 4.95847 4.04168C4.41245 3.99927 3.88533 3.95832 3.511 4.0856C2.96775 4.27123 2.93096 5.24667 2.89633 6.16519L2.89446 6.21461C2.86538 6.97288 2.67746 7.55799 2.05465 7.49906C1.33029 7.43161 0.609497 7.41035 0.281987 8.06594C-0.10481 8.84161 -0.0250374 9.65358 0.117847 11.1079C0.138258 11.3157 0.159956 11.5365 0.181766 11.7723H24.4264C24.4403 11.6 24.455 11.4299 24.4696 11.2625C24.5831 9.95406 24.682 8.81402 24.2175 8.10239Z" fill="#8047F8"/>
<path fill-rule="evenodd" clip-rule="evenodd" d="M2.06987 13.2147C2.44852 18.3395 2.82304 23.4701 3.19757 28.6009L3.1978 28.604C3.40115 31.3898 3.60451 34.1757 3.80853 36.9606H4.58212C4.63483 37.3965 4.69515 37.9347 4.75874 38.5021C4.88783 39.6539 5.03044 40.9264 5.15034 41.7083H5.2359C6.02387 41.42 11.4712 39.0916 11.4736 29.8218C11.4726 29.7954 11.4735 29.7689 11.4762 29.7427H10.1304C10.0653 29.7421 10.0021 29.7203 9.9507 29.6808C9.89927 29.6413 9.86241 29.5861 9.84577 29.5238C9.71463 29.1999 9.60888 28.8664 9.52948 28.5264C8.73777 28.9736 8.10906 29.6564 7.73296 30.4775C7.37594 29.6365 7.32921 28.6983 7.60093 27.8267C7.87266 26.9551 8.44556 26.2057 9.21952 25.7093C9.22949 23.0043 10.2423 20.3968 12.0661 18.3804L12.0946 18.3553C12.1476 18.3095 12.2155 18.284 12.2859 18.2834C12.3266 18.2838 12.3668 18.2925 12.4039 18.309C12.4415 18.3257 12.4751 18.35 12.5026 18.3804C14.3478 20.3996 15.3552 23.0321 15.3239 25.7531C16.1123 26.2356 16.6969 26.9845 16.9691 27.8608C17.2413 28.7371 17.1827 29.6813 16.8042 30.5181C16.4301 29.6957 15.8008 29.0123 15.0076 28.5671C14.9592 28.8966 14.8699 29.219 14.7419 29.527C14.6977 29.6583 14.6091 29.7427 14.5205 29.7427H13.0853C13.0876 29.7584 13.0892 29.7742 13.0901 29.7901L13.0907 29.7937V29.8014C13.0912 29.815 13.0912 29.8287 13.0907 29.8424C13.1104 39.3783 18.902 41.5428 19.3902 41.7083H19.5572C19.5998 40.9572 19.7386 39.9208 19.8739 38.9104C19.9671 38.2142 20.0587 37.5302 20.116 36.9606H20.8985C21.149 33.4527 21.4066 29.9546 21.6642 26.4564L21.6644 26.4545L21.6645 26.4535C21.994 21.9789 22.3235 17.5042 22.6381 13.0087H2.11998C2.06092 13.0202 2.06495 13.1169 2.06987 13.2147ZM12.2859 18.2834L12.2844 18.2834H12.2875L12.2859 18.2834Z" fill="#8047F8"/>
<path d="M37.0305 30.9797C37.0305 29.8119 36.4128 29.2281 35.1775 29.2281H33.2075V39.874H35.1775C36.4128 39.874 37.0305 39.2771 37.0305 38.0834V30.9797ZM31.8226 28.0214H35.2555C36.2958 28.0214 37.0825 28.2874 37.6156 28.8194C38.1488 29.3513 38.4154 30.065 38.4154 30.9602V38.1224C38.4154 39.0436 38.1553 39.7702 37.6352 40.3022C37.115 40.8341 36.3348 41.1001 35.2945 41.1001H31.8226V28.0214Z" fill="#403937"/>
<path d="M40.6944 38.2781V32.8675C40.6944 31.9463 40.9545 31.2132 41.4746 30.6683C42.0078 30.1104 42.8075 29.8314 43.8737 29.8314C44.94 29.8314 45.7267 30.1104 46.2339 30.6683C46.754 31.2132 47.0141 31.9463 47.0141 32.8675V36.254H42.0598V38.2197C42.0598 38.8036 42.2418 39.2382 42.6059 39.5237C42.97 39.8091 43.5357 39.9518 44.3029 39.9518C45.0701 39.9518 45.8633 39.8351 46.6825 39.6015V40.886C46.0323 41.0936 45.2586 41.1974 44.3614 41.1974C41.9167 41.1974 40.6944 40.2243 40.6944 38.2781ZM42.0598 35.1057H45.6877V32.8675C45.6877 31.6479 45.0831 31.0381 43.8737 31.0381C42.6644 31.0381 42.0598 31.6479 42.0598 32.8675V35.1057Z" fill="#403937"/>
<path d="M49.3849 27.0872H50.7697V41.1001H49.3849V27.0872Z" fill="#403937"/>
<path d="M54.1438 28.7804C53.5847 28.7804 53.3051 28.482 53.3051 27.8852C53.3051 27.2883 53.5847 26.9899 54.1438 26.9899C54.716 26.9899 55.002 27.2883 55.002 27.8852C55.002 28.482 54.716 28.7804 54.1438 28.7804ZM53.4611 30.1039H54.846V41.1001H53.4611V30.1039Z" fill="#403937"/>
<path d="M61.9846 30.026H63.3889L60.9313 41.1001H58.9808L56.5231 30.026H57.947L59.0198 35.1057L59.9755 40.127C60.3656 37.9732 61.0353 34.6062 61.9846 30.026Z" fill="#403937"/>
<path d="M64.8663 38.2781V32.8675C64.8663 31.9463 65.1264 31.2132 65.6465 30.6683C66.1796 30.1104 66.9794 29.8314 68.0456 29.8314C69.1119 29.8314 69.8986 30.1104 70.4058 30.6683C70.9259 31.2132 71.186 31.9463 71.186 32.8675V36.254H66.2317V38.2197C66.2317 38.8036 66.4137 39.2382 66.7778 39.5237C67.1419 39.8091 67.7075 39.9518 68.4747 39.9518C69.2419 39.9518 70.0352 39.8351 70.8544 39.6015V40.886C70.2042 41.0936 69.4305 41.1974 68.5333 41.1974C66.0886 41.1974 64.8663 40.2243 64.8663 38.2781ZM66.2317 35.1057H69.8596V32.8675C69.8596 31.6479 69.2549 31.0381 68.0456 31.0381C66.8363 31.0381 66.2317 31.6479 66.2317 32.8675V35.1057Z" fill="#403937"/>
<path d="M77.1457 29.9676H77.6333V31.2911H76.9701C76.502 31.2911 76.0794 31.4143 75.7023 31.6609C75.5853 31.7387 75.3317 31.9139 74.9416 32.1864V41.1001H73.5567V30.026H74.8831V30.8629C74.9221 30.837 75.0196 30.7656 75.1757 30.6488C75.3447 30.5321 75.4422 30.4672 75.4682 30.4542C75.5073 30.4283 75.5918 30.3764 75.7218 30.2985C75.8649 30.2207 75.9689 30.1752 76.0339 30.1623C76.1119 30.1363 76.2159 30.1039 76.346 30.065C76.541 30.0001 76.8076 29.9676 77.1457 29.9676Z" fill="#403937"/>
<path d="M83.5668 30.026H84.9517L81.9089 44H80.5826L81.1872 41.1001H80.5045L78.0859 30.026H79.4903L80.6606 35.5339L81.5188 40.127C81.7789 38.596 82.0649 37.0649 82.377 35.5339L83.5668 30.026Z" fill="#403937"/>
<path d="M35.328 14.44H36.768C37.584 14.44 38.224 14.248 38.688 13.864C39.168 13.48 39.408 12.928 39.408 12.208C39.408 11.488 39.184 10.944 38.736 10.576C38.288 10.208 37.64 10.024 36.792 10.024C36.504 10.024 36.24 10.032 36 10.048C35.776 10.064 35.552 10.088 35.328 10.12V14.44ZM37.008 17.32H31.704V8.728C31.704 8.424 31.792 8.184 31.968 8.008C32.144 7.832 32.376 7.696 32.664 7.6C33.192 7.408 33.824 7.272 34.56 7.192C35.296 7.112 35.96 7.072 36.552 7.072C38.712 7.072 40.344 7.536 41.448 8.464C42.568 9.376 43.128 10.624 43.128 12.208C43.128 13.232 42.88 14.128 42.384 14.896C41.904 15.664 41.208 16.264 40.296 16.696C39.384 17.112 38.288 17.32 37.008 17.32ZM31.704 15.712H35.352V21.976C35.208 22.024 34.976 22.064 34.656 22.096C34.336 22.144 34.008 22.168 33.672 22.168C32.952 22.168 32.44 22.04 32.136 21.784C31.848 21.528 31.704 21.08 31.704 20.44V15.712ZM44.9126 7.168C44.9126 6.624 45.0966 6.168 45.4646 5.8C45.8486 5.432 46.3286 5.248 46.9046 5.248C47.4966 5.248 47.9766 5.432 48.3446 5.8C48.7126 6.168 48.8966 6.624 48.8966 7.168C48.8966 7.696 48.7126 8.152 48.3446 8.536C47.9766 8.92 47.4966 9.112 46.9046 9.112C46.3286 9.112 45.8486 8.92 45.4646 8.536C45.0966 8.152 44.9126 7.696 44.9126 7.168ZM45.1286 15.664H48.6806V21.976C48.5366 22.024 48.3206 22.064 48.0326 22.096C47.7446 22.144 47.4326 22.168 47.0966 22.168C46.4086 22.168 45.9046 22.048 45.5846 21.808C45.2806 21.568 45.1286 21.136 45.1286 20.512V15.664ZM48.6806 17.512H45.1286V10.624C45.2726 10.576 45.4886 10.528 45.7766 10.48C46.0806 10.432 46.4006 10.408 46.7366 10.408C47.4246 10.408 47.9206 10.528 48.2246 10.768C48.5286 10.992 48.6806 11.432 48.6806 12.088V17.512ZM53.2037 22H51.7877C51.5637 21.808 51.3877 21.576 51.2597 21.304C51.1317 21.032 51.0677 20.736 51.0677 20.416C51.0677 20.128 51.1317 19.848 51.2597 19.576C51.4037 19.288 51.5717 19.024 51.7637 18.784L58.7237 10.504H59.9717C60.1957 10.696 60.3717 10.928 60.4997 11.2C60.6437 11.456 60.7157 11.752 60.7157 12.088C60.7157 12.376 60.6437 12.656 60.4997 12.928C60.3717 13.2 60.2037 13.464 59.9957 13.72L53.2037 22ZM59.2517 10.504V13.264H51.5237C51.4437 13.104 51.3637 12.904 51.2837 12.664C51.2037 12.408 51.1637 12.152 51.1637 11.896C51.1637 11.4 51.2757 11.048 51.4997 10.84C51.7237 10.616 52.0197 10.504 52.3877 10.504H59.2517ZM52.7717 22V19.24H60.5957C60.6917 19.368 60.7717 19.56 60.8357 19.816C60.9157 20.056 60.9557 20.32 60.9557 20.608C60.9557 21.088 60.8437 21.44 60.6197 21.664C60.4117 21.888 60.1237 22 59.7557 22H52.7717ZM64.6646 22H63.2486C63.0246 21.808 62.8486 21.576 62.7206 21.304C62.5926 21.032 62.5286 20.736 62.5286 20.416C62.5286 20.128 62.5926 19.848 62.7206 19.576C62.8646 19.288 63.0326 19.024 63.2246 18.784L70.1846 10.504H71.4326C71.6566 10.696 71.8326 10.928 71.9606 11.2C72.1046 11.456 72.1766 11.752 72.1766 12.088C72.1766 12.376 72.1046 12.656 71.9606 12.928C71.8326 13.2 71.6646 13.464 71.4566 13.72L64.6646 22ZM70.7126 10.504V13.264H62.9846C62.9046 13.104 62.8246 12.904 62.7446 12.664C62.6646 12.408 62.6246 12.152 62.6246 11.896C62.6246 11.4 62.7366 11.048 62.9606 10.84C63.1846 10.616 63.4806 10.504 63.8486 10.504H70.7126ZM64.2326 22V19.24H72.0566C72.1526 19.368 72.2326 19.56 72.2966 19.816C72.3766 20.056 72.4166 20.32 72.4166 20.608C72.4166 21.088 72.3046 21.44 72.0806 21.664C71.8726 21.888 71.5846 22 71.2166 22H64.2326ZM79.2216 19.72C79.5896 19.72 79.9496 19.688 80.3016 19.624C80.6696 19.544 80.9336 19.456 81.0936 19.36V17.056L79.0776 17.248C78.5336 17.28 78.1016 17.392 77.7816 17.584C77.4616 17.776 77.3016 18.064 77.3016 18.448C77.3016 18.832 77.4536 19.144 77.7576 19.384C78.0616 19.608 78.5496 19.72 79.2216 19.72ZM79.0776 10.12C80.7416 10.12 82.0696 10.472 83.0616 11.176C84.0536 11.864 84.5496 12.936 84.5496 14.392V19.84C84.5496 20.24 84.4456 20.568 84.2376 20.824C84.0296 21.064 83.7656 21.272 83.4456 21.448C82.9656 21.736 82.3656 21.96 81.6456 22.12C80.9416 22.296 80.1336 22.384 79.2216 22.384C77.5896 22.384 76.2856 22.064 75.3096 21.424C74.3496 20.784 73.8696 19.832 73.8696 18.568C73.8696 17.48 74.2056 16.648 74.8776 16.072C75.5496 15.48 76.5496 15.12 77.8776 14.992L81.0696 14.656V14.368C81.0696 13.824 80.8536 13.432 80.4216 13.192C80.0056 12.952 79.4056 12.832 78.6216 12.832C78.0136 12.832 77.4136 12.904 76.8216 13.048C76.2456 13.192 75.7256 13.36 75.2616 13.552C75.0696 13.424 74.9016 13.232 74.7576 12.976C74.6296 12.704 74.5656 12.424 74.5656 12.136C74.5656 11.464 74.9336 10.976 75.6696 10.672C76.1336 10.48 76.6696 10.344 77.2776 10.264C77.9016 10.168 78.5016 10.12 79.0776 10.12Z" fill="#403937"/>
</svg>
